<svg width="334" height="340" viewBox="0 0 334 340" fill="none" xmlns="http://www.w3.org/2000/svg">
<path d="M168.165 247.954C168.779 248.165 169.322 248.481 169.793 248.903C203.456 278.948 237.09 308.949 270.694 338.905C271.51 339.635 271.363 340 270.253 340L215.419 339.891C214.973 339.89 214.545 339.73 214.22 339.44L111.275 247.638C110.602 247.036 109.714 246.701 108.79 246.701L53.981 246.725C53.9085 246.726 53.8383 246.748 53.7794 246.788C53.7205 246.828 53.6754 246.885 53.6497 246.952C53.6241 247.018 53.6192 247.091 53.6354 247.161C53.6517 247.231 53.6886 247.295 53.7413 247.346L156.85 339.258C157.414 339.753 157.313 340 156.548 340L101.524 339.976C100.941 339.975 100.382 339.762 99.96 339.38C76.8423 318.814 53.7707 298.245 30.7454 277.671C25.1615 272.684 21.394 268.544 19.443 265.251C12.4421 253.391 12.7953 239.439 19.9729 227.64C27.3732 215.492 39.3148 209.418 55.7974 209.418C102.05 209.434 148.302 209.438 194.555 209.43C206.555 209.422 214.948 209.073 219.733 208.384C257.815 202.874 288.279 173.412 294.195 136.798C301.574 90.9878 270.039 47.6713 223.139 38.9253C217.597 37.8954 209.229 37.3764 198.036 37.3683C135.822 37.3115 73.571 37.3074 11.2816 37.3561C11.0508 37.3561 10.8294 37.2664 10.6661 37.1067C10.5029 36.947 10.4112 36.7304 10.4112 36.5046L10.3986 0.632547C10.3986 0.218966 10.613 0.0121641 11.0419 0.0121641C76.7456 -0.00405472 142.437 -0.00405472 208.115 0.0121641C227.617 0.0202736 246.715 4.71159 265.409 14.0861C319.171 41.0418 346.38 102.13 328.556 158.985C313.911 205.696 271.678 240.096 221.335 245.85C206.336 247.552 186.242 246.701 169.011 246.823C168.599 246.823 168.287 246.883 168.077 247.005C167.987 247.055 167.913 247.128 167.864 247.217C167.816 247.306 167.795 247.407 167.804 247.507C167.814 247.607 167.853 247.702 167.917 247.782C167.981 247.861 168.067 247.921 168.165 247.954ZM126.942 247.869L128.128 249.815C128.145 249.839 128.17 249.852 128.203 249.852C128.296 249.843 128.41 249.823 128.544 249.791C128.569 249.783 128.573 249.77 128.557 249.754C128.01 249.243 127.821 248.708 127.989 248.149C128.073 247.857 127.96 247.686 127.648 247.638L127.156 247.565C126.862 247.516 126.791 247.617 126.942 247.869ZM119.853 252.126L120.118 252.941C120.152 253.051 120.224 253.146 120.323 253.211C120.421 253.275 120.54 253.305 120.658 253.295C120.777 253.285 120.888 253.236 120.973 253.156C121.059 253.076 121.113 252.97 121.127 252.856C121.261 252.029 120.938 251.644 120.156 251.701C120.104 251.704 120.054 251.718 120.009 251.743C119.965 251.767 119.926 251.801 119.897 251.842C119.868 251.883 119.849 251.93 119.841 251.979C119.833 252.029 119.837 252.079 119.853 252.126ZM140.438 262.943C140.5 262.905 140.455 262.708 140.312 262.396C140.17 262.084 139.941 261.681 139.678 261.277C139.547 261.077 139.412 260.883 139.279 260.705C139.146 260.527 139.02 260.37 138.905 260.241C138.791 260.113 138.692 260.017 138.613 259.958C138.535 259.898 138.479 259.877 138.448 259.896C138.386 259.934 138.431 260.131 138.573 260.443C138.716 260.756 138.944 261.158 139.208 261.562C139.339 261.762 139.474 261.957 139.607 262.134C139.739 262.312 139.866 262.47 139.98 262.598C140.094 262.726 140.194 262.823 140.272 262.882C140.351 262.941 140.407 262.962 140.438 262.943Z" fill="url(#paint0_linear_1_158)"/>
<path d="M2.88083 184.712C10.2476 160.019 30.3674 141.785 56.4537 136.055C61.2724 134.993 67.7435 134.458 75.8671 134.45C114.349 134.409 152.827 134.413 191.3 134.462C195.581 134.462 198.671 134.089 200.572 133.343C207.813 130.496 209.97 121.848 205.34 115.997C202.91 112.923 199.172 111.386 194.126 111.386C129.701 111.419 65.2753 111.415 0.84993 111.374C0.412634 111.374 0.193981 111.168 0.193981 110.754L0.206608 74.6508C0.206608 74.2453 0.416846 74.0426 0.837322 74.0426C63.4462 73.9858 126.038 73.9858 188.614 74.0426C198.074 74.0507 205.05 74.6427 209.541 75.8185C219.363 78.3811 227.554 83.3684 234.113 90.7804C258.623 118.442 245.075 160.639 208.595 170.078C204.541 171.133 199.046 171.664 192.108 171.672C154.971 171.713 117.839 171.741 80.711 171.757C63.8835 171.757 48.1787 171.575 33.2308 176.915C15.8315 183.143 4.94117 195.116 0.559806 212.835C0.526168 212.973 0.500943 212.969 0.484124 212.823C-0.625934 203.149 0.172963 193.778 2.88083 184.712Z" fill="url(#paint1_linear_1_158)"/>
<defs>
<linearGradient id="paint0_linear_1_158" x1="319.467" y1="168.5" x2="-8.01004" y2="167.561" gradientUnits="userSpaceOnUse">
<stop offset="0.015625" stop-color="#8A2020"/>
<stop offset="0.463542" stop-color="#AA0E0E"/>
<stop offset="1"/>
</linearGradient>
<linearGradient id="paint1_linear_1_158" x1="235.442" y1="142.855" x2="-14.0182" y2="141.522" gradientUnits="userSpaceOnUse">
<stop offset="0.015625" stop-color="#8A2020"/>
<stop offset="0.463542" stop-color="#AA0E0E"/>
<stop offset="1"/>
</linearGradient>
</defs>
</svg>
