<?xml version="1.0" encoding="iso-8859-1"?>
<!-- Uploaded to: SVG Repo, www.svgrepo.com, Generator: SVG Repo Mixer Tools -->
<svg fill="#000000" height="800px" width="800px" version="1.1" id="Layer_1" xmlns="http://www.w3.org/2000/svg" xmlns:xlink="http://www.w3.org/1999/xlink" 
	 viewBox="0 0 511.999 511.999" xml:space="preserve">
<g>
	<g>
		<path d="M428.517,54.219H301.838V23.921h86.66C361.822,8.872,331.096,0.203,298.393,0c-21.28,0.316-38.496,17.715-38.496,39.07
			c0,21.551,17.532,39.084,39.084,39.084h22.43h127.466C442.765,69.611,435.95,61.604,428.517,54.219z"/>
	</g>
</g>
<g>
	<g>
		<path d="M482.095,162.684h-60.779v-15.149v-15.149h54.296c-2.496-8.233-5.545-16.225-9.109-23.935H378.7
			c7.623,11.138,12.093,24.598,12.093,39.084c0,14.486-4.469,27.945-12.093,39.084h67.363l24.521,15.61l13.008,8.28v-24.151h0
			C483.591,178.34,483.082,170.438,482.095,162.684z"/>
	</g>
</g>
<g>
	<g>
		<path d="M229.6,39.069c0-14.278,4.339-27.561,11.761-38.604c-28.169,1.997-54.624,10.282-77.974,23.455h35.69v30.298h-75.708
			c-7.433,7.387-14.249,15.392-20.362,23.935h138.684C234.069,67.014,229.6,53.556,229.6,39.069z"/>
	</g>
</g>
<g>
	<g>
		<path d="M241.69,433.846H103.007c6.112,8.543,12.928,16.549,20.361,23.935h75.708v30.298h-35.69
			c23.35,13.173,49.806,21.459,77.974,23.455c-7.423-11.043-11.762-24.326-11.762-38.604
			C229.599,458.444,234.068,444.985,241.69,433.846z"/>
	</g>
</g>
<g>
	<g>
		<path d="M470.584,309.772l-24.521,15.61H378.7c7.624,11.138,12.093,24.597,12.093,39.083c0,14.486-4.47,27.945-12.093,39.084
			h87.803c3.563-7.711,6.613-15.703,9.109-23.935h-54.296v-15.149v-15.149h60.779c0.988-7.754,1.497-15.657,1.497-23.675v-24.15
			L470.584,309.772z"/>
	</g>
</g>
<g>
	<g>
		<path d="M321.411,325.381H93.292H68.293v0.26c0,8.019,0.509,15.92,1.497,23.674h248.764v15.149v15.149H76.273
			c2.495,8.233,5.545,16.225,9.108,23.935h213.6h22.43v0.001c21.551,0,39.084-17.533,39.084-39.084S342.962,325.381,321.411,325.381
			z"/>
	</g>
</g>
<g>
	<g>
		<path d="M428.516,457.781c7.434-7.387,14.25-15.392,20.362-23.935H321.411h-22.43c-21.551,0-39.084,17.533-39.084,39.084
			c0,21.354,17.216,38.753,38.496,39.069c32.702-0.203,63.429-8.871,90.104-23.92h-86.66v-30.298H428.516z"/>
	</g>
</g>
<g>
	<g>
		<path d="M321.411,108.45h-22.43H85.38c-3.563,7.711-6.613,15.703-9.108,23.935h242.282v15.149v15.149H69.79
			c-0.988,7.754-1.497,15.657-1.497,23.675v0.261h24.999h228.12c21.551,0,39.084-17.532,39.084-39.084
			S342.962,108.45,321.411,108.45z"/>
	</g>
</g>
<g>
	<g>
		<polygon points="53.145,216.916 37.996,216.916 13.366,216.916 13.366,295.084 37.996,295.084 53.145,295.084 62.994,295.084 
			62.994,216.916 		"/>
	</g>
</g>
<g>
	<g>
		<polygon points="468.341,236.716 456.799,229.369 456.799,282.631 468.341,275.284 498.633,256 		"/>
	</g>
</g>
<g>
	<g>
		<polygon points="321.411,216.916 93.292,216.916 93.292,295.084 321.411,295.084 426.502,295.084 426.502,216.916 		"/>
	</g>
</g>
</svg>