<svg width="26" height="26" viewBox="0 0 26 26" fill="none" xmlns="http://www.w3.org/2000/svg">
<path fill-rule="evenodd" clip-rule="evenodd" d="M12.9426 18.8247C16.3944 18.8247 19.1926 16.0265 19.1926 12.5747C19.1926 9.12293 16.3944 6.32471 12.9426 6.32471C9.49085 6.32471 6.69263 9.12293 6.69263 12.5747C6.69263 16.0265 9.49085 18.8247 12.9426 18.8247ZM12.9426 16.7414C15.2438 16.7414 17.1093 14.8759 17.1093 12.5747C17.1093 10.2735 15.2438 8.40804 12.9426 8.40804C10.6414 8.40804 8.77596 10.2735 8.77596 12.5747C8.77596 14.8759 10.6414 16.7414 12.9426 16.7414Z" fill="#AA0E0E"/>
<path d="M19.1926 5.2832C18.6173 5.2832 18.151 5.74958 18.151 6.32487C18.151 6.90016 18.6173 7.36654 19.1926 7.36654C19.7679 7.36654 20.2343 6.90016 20.2343 6.32487C20.2343 5.74958 19.7679 5.2832 19.1926 5.2832Z" fill="#AA0E0E"/>
<path fill-rule="evenodd" clip-rule="evenodd" d="M2.16549 4.52877C1.48428 5.86572 1.48428 7.61589 1.48428 11.1162V14.0329C1.48428 17.5332 1.48428 19.2834 2.16549 20.6203C2.7647 21.7963 3.72083 22.7525 4.89685 23.3516C6.23379 24.0329 7.98396 24.0329 11.4843 24.0329H14.4009C17.9013 24.0329 19.6515 24.0329 20.9883 23.3516C22.1644 22.7525 23.1205 21.7963 23.7197 20.6203C24.4009 19.2834 24.4009 17.5332 24.4009 14.0329V11.1162C24.4009 7.61589 24.4009 5.86572 23.7197 4.52877C23.1205 3.35275 22.1644 2.39663 20.9883 1.79742C19.6515 1.11621 17.9013 1.11621 14.4009 1.11621H11.4843C7.98396 1.11621 6.23379 1.11621 4.89685 1.79742C3.72083 2.39663 2.7647 3.35275 2.16549 4.52877ZM14.4009 3.19954H11.4843C9.69974 3.19954 8.48663 3.20117 7.54895 3.27777C6.63558 3.3524 6.16849 3.48766 5.84266 3.65368C5.05865 4.05316 4.42123 4.69058 4.02175 5.47459C3.85573 5.80042 3.72047 6.2675 3.64585 7.18088C3.56924 8.11855 3.56762 9.33167 3.56762 11.1162V14.0329C3.56762 15.8175 3.56924 17.0305 3.64585 17.9682C3.72047 18.8816 3.85573 19.3487 4.02175 19.6745C4.42123 20.4585 5.05865 21.0959 5.84266 21.4954C6.16849 21.6614 6.63558 21.7967 7.54895 21.8713C8.48663 21.9479 9.69974 21.9495 11.4843 21.9495H14.4009C16.1855 21.9495 17.3986 21.9479 18.3363 21.8713C19.2497 21.7967 19.7168 21.6614 20.0426 21.4954C20.8266 21.0959 21.464 20.4585 21.8634 19.6745C22.0295 19.3487 22.1648 18.8816 22.2394 17.9682C22.3159 17.0305 22.3176 15.8175 22.3176 14.0329V11.1162C22.3176 9.33167 22.3159 8.11855 22.2394 7.18088C22.1648 6.2675 22.0295 5.80042 21.8634 5.47459C21.464 4.69058 20.8266 4.05316 20.0426 3.65368C19.7168 3.48766 19.2497 3.3524 18.3363 3.27777C17.3986 3.20117 16.1855 3.19954 14.4009 3.19954Z" fill="#AA0E0E"/>
</svg>
