<svg width="26" height="26" viewBox="0 0 26 26" fill="none" xmlns="http://www.w3.org/2000/svg">
<path d="M7.21347 8.4082C8.07642 8.4082 8.77597 7.70865 8.77597 6.8457C8.77597 5.98276 8.07642 5.2832 7.21347 5.2832C6.35052 5.2832 5.65097 5.98276 5.65097 6.8457C5.65097 7.70865 6.35052 8.4082 7.21347 8.4082Z" fill="#AA0E0E"/>
<path d="M5.65097 10.4914C5.65097 9.91608 6.11735 9.44971 6.69264 9.44971H7.7343C8.3096 9.44971 8.77597 9.91607 8.77597 10.4914V18.8247C8.77597 19.4 8.3096 19.8664 7.7343 19.8664H6.69264C6.11735 19.8664 5.65097 19.4 5.65097 18.8247V10.4914Z" fill="#AA0E0E"/>
<path d="M11.901 19.8664H12.9426C13.5179 19.8664 13.9843 19.4 13.9843 18.8247V14.1372C13.9843 12.5747 17.1093 11.533 17.1093 13.6164V18.8251C17.1093 19.4004 17.5756 19.8664 18.1509 19.8664H19.1926C19.7679 19.8664 20.2343 19.4 20.2343 18.8247V12.5747C20.2343 10.4914 18.6718 9.44971 16.5884 9.44971C14.5051 9.44971 13.9843 11.0122 13.9843 11.0122V10.4914C13.9843 9.91607 13.5179 9.44971 12.9426 9.44971H11.901C11.3256 9.44971 10.8593 9.91608 10.8593 10.4914V18.8247C10.8593 19.4 11.3256 19.8664 11.901 19.8664Z" fill="#AA0E0E"/>
<path fill-rule="evenodd" clip-rule="evenodd" d="M21.2759 1.11621C23.0019 1.11621 24.4009 2.51533 24.4009 4.24121V20.9079C24.4009 22.6338 23.0019 24.0329 21.2759 24.0329H4.60928C2.8834 24.0329 1.48428 22.6338 1.48428 20.9079V4.24121C1.48428 2.51533 2.8834 1.11621 4.60928 1.11621H21.2759ZM21.2759 3.19954C21.8513 3.19954 22.3176 3.66592 22.3176 4.24121V20.9079C22.3176 21.4832 21.8513 21.9495 21.2759 21.9495H4.60928C4.03399 21.9495 3.56762 21.4832 3.56762 20.9079V4.24121C3.56762 3.66592 4.03399 3.19954 4.60928 3.19954H21.2759Z" fill="#AA0E0E"/>
</svg>
