<svg width="26" height="26" viewBox="0 0 26 26" fill="none" xmlns="http://www.w3.org/2000/svg">
<path d="M12.9426 0.074707C6.06763 0.074707 0.442627 5.69971 0.442627 12.5747C0.442627 19.4497 6.06763 25.0747 12.9426 25.0747C19.8176 25.0747 25.4426 19.4497 25.4426 12.5747C25.4426 5.69971 19.8176 0.074707 12.9426 0.074707ZM19.0676 7.69971L16.9426 17.9497C16.8176 18.6997 16.3176 18.8247 15.8176 18.4497L12.5676 15.9497C11.8176 16.6997 11.0676 17.3247 10.9426 17.5747C10.6926 17.6997 10.5676 17.9497 10.3176 17.9497C9.94263 17.9497 9.94263 17.6997 9.81763 17.4497L8.69263 13.6997L5.31763 12.5747C4.56763 12.3247 4.56763 11.8247 5.44263 11.4497L18.1926 6.57471C18.6926 6.44971 19.3176 6.69971 19.0676 7.69971ZM16.0676 8.82471L8.94263 13.3247L10.0676 17.0747L10.3176 14.5747L16.4426 9.07471C16.8176 8.69971 16.5676 8.69971 16.0676 8.82471Z" fill="#AA0E0E"/>
</svg>
