<svg width="28" height="28" viewBox="0 0 28 28" fill="none" xmlns="http://www.w3.org/2000/svg">
<path d="M1.44263 4.54693C1.44263 16.4364 11.0809 26.0747 22.9704 26.0747C23.5068 26.0747 24.0386 26.0551 24.5653 26.0165C25.1696 25.9722 25.4717 25.9501 25.7468 25.7918C25.9746 25.6607 26.1905 25.4282 26.3047 25.1914C26.4426 24.9055 26.4426 24.5721 26.4426 23.9053V19.9923C26.4426 19.4315 26.4426 19.1511 26.3503 18.9108C26.2689 18.6985 26.1364 18.5094 25.9647 18.3603C25.7704 18.1914 25.5068 18.0955 24.9798 17.9039L20.526 16.2843C19.9128 16.0614 19.6061 15.9498 19.3153 15.9687C19.0587 15.9854 18.8119 16.073 18.6022 16.2217C18.3644 16.3901 18.1967 16.6698 17.861 17.2294L16.7204 19.1303C13.04 17.4635 10.0564 14.476 8.38707 10.7969L10.2879 9.6564C10.8474 9.32072 11.1272 9.15287 11.2957 8.91507C11.4443 8.70537 11.5319 8.45855 11.5486 8.20207C11.5675 7.91119 11.456 7.60461 11.233 6.99144L9.61345 2.5375C9.42179 2.01048 9.32597 1.74697 9.1571 1.55262C9.00792 1.38094 8.81886 1.24853 8.60654 1.167C8.36618 1.07471 8.08579 1.07471 7.52502 1.07471H3.61208C2.94524 1.07471 2.61181 1.07471 2.32593 1.21255C2.08915 1.32673 1.85671 1.54278 1.72554 1.77058C1.56718 2.04564 1.54506 2.34779 1.50081 2.95211C1.46225 3.47868 1.44263 4.01051 1.44263 4.54693Z" stroke="#AA0E0E" stroke-width="2" stroke-linecap="round" stroke-linejoin="round"/>
</svg>
