<svg width="26" height="26" viewBox="0 0 26 26" fill="none" xmlns="http://www.w3.org/2000/svg">
<path fill-rule="evenodd" clip-rule="evenodd" d="M21.0497 4.15602C21.4127 4.06998 21.6659 3.98539 21.8733 3.89654C22.1639 3.77202 22.4048 3.62286 22.7856 3.37164C23.1054 3.1605 23.5154 3.14212 23.8529 3.32376C24.1904 3.50541 24.401 3.85774 24.401 4.24103C24.401 5.367 24.2607 6.28986 23.9359 7.10201C23.6625 7.78515 23.2786 8.34 22.8193 8.84501C22.6253 12.3483 21.6113 15.0994 20.061 17.1837C18.4541 19.344 16.3162 20.7274 14.0625 21.5022C11.8154 22.2746 9.44121 22.4472 7.3142 22.1857C5.20114 21.9259 3.24789 21.2263 1.88644 20.1674C1.5136 19.8774 1.38254 19.3728 1.56712 18.9381C1.75171 18.5033 2.20572 18.2471 2.6733 18.314C4.01285 18.5053 5.30232 18.2008 6.36264 17.7653C6.15391 17.6518 5.9571 17.5289 5.77418 17.4022C4.808 16.7334 4.02847 15.8253 3.6776 15.1236C3.53241 14.8333 3.53091 14.4917 3.67355 14.2001C3.74714 14.0496 3.85474 13.9214 3.98539 13.8236C2.57469 12.6593 2.00512 11.049 2.00512 9.9702C2.00512 9.64943 2.15292 9.34654 2.40575 9.14915C2.51206 9.06615 2.63196 9.00568 2.75834 8.96926C2.65278 8.66016 2.57086 8.34786 2.50843 8.04551C2.23158 6.70503 2.25616 5.19205 2.55706 3.9884C2.66003 3.5765 3.00268 3.26832 3.42315 3.20943C3.8436 3.15054 4.25774 3.35273 4.46991 3.72049C5.59231 5.66599 7.66259 6.85517 9.58936 7.55959C10.4952 7.89078 11.3342 8.10182 11.9631 8.23157C12.0988 6.96013 12.4538 5.91159 12.9987 5.07879C13.7175 3.98005 14.7201 3.32998 15.7968 3.04012C17.6538 2.54022 19.7143 3.10974 21.0497 4.15602ZM11.6389 10.2916C10.9252 10.1483 9.94442 9.9076 8.87401 9.51626C7.46024 8.9994 5.81855 8.19345 4.44339 6.94504C4.468 7.17477 4.50294 7.40255 4.54871 7.62416C4.77918 8.74013 5.20743 9.36513 5.59598 9.5594C6.0712 9.79701 6.29143 10.3542 6.10708 10.8525C5.8575 11.5272 5.20106 11.5825 4.60462 11.4335C5.08433 12.1526 5.94656 12.8697 7.38471 13.1094C7.88073 13.1921 8.24688 13.6173 8.25499 14.1201C8.2631 14.6229 7.91085 15.0597 7.41775 15.1584L6.51102 15.3397C6.64973 15.4602 6.79993 15.5785 6.96003 15.6893C7.68599 16.1919 8.41488 16.4087 9.04416 16.2514C9.51546 16.1336 10.0056 16.3571 10.2256 16.7903C10.4455 17.2235 10.3369 17.7512 9.96366 18.0621C9.29291 18.6204 8.50956 19.0685 7.72448 19.4402C7.35592 19.6148 6.94403 19.7871 6.4967 19.9388C6.84074 20.0122 7.19874 20.0724 7.56845 20.1179C9.4128 20.3447 11.4657 20.1918 13.3852 19.532C15.2983 18.8744 17.0665 17.7188 18.3894 15.9403C19.7103 14.1643 20.6322 11.7065 20.7559 8.36921C20.7656 8.10646 20.8743 7.85711 21.0602 7.67119C21.5286 7.2028 21.9157 6.66594 22.1061 6.02691C21.7728 6.13079 21.3976 6.22071 20.9508 6.30615C20.6117 6.37096 20.2626 6.26364 20.0186 6.01958C19.2222 5.2232 17.6472 4.69949 16.3384 5.05182C15.7224 5.21765 15.1625 5.57663 14.742 6.21937C14.3127 6.87559 13.9843 7.8979 13.9843 9.44941C13.9843 9.74418 13.8594 10.0251 13.6407 10.2226C13.1219 10.6909 12.2489 10.4141 11.6389 10.2916Z" fill="#AA0E0E"/>
</svg>
