<svg width="26" height="15" viewBox="0 0 26 15" fill="none" xmlns="http://www.w3.org/2000/svg">
<path fill-rule="evenodd" clip-rule="evenodd" d="M24.869 1.27069C25.0427 0.701474 24.869 0.283203 24.0419 0.283203H21.3069C20.6115 0.283203 20.2909 0.644526 20.117 1.04295C20.117 1.04295 18.7261 4.37286 16.7558 6.53581C16.1184 7.16195 15.8286 7.36122 15.4809 7.36122C15.307 7.36122 15.0462 7.16195 15.0462 6.59279V1.27069C15.0462 0.58763 14.8536 0.283203 14.274 0.283203H9.9761C9.54152 0.283203 9.28016 0.600224 9.28016 0.900682C9.28016 1.54821 10.2653 1.69755 10.3668 3.51905V7.47508C10.3668 8.34237 10.2073 8.49966 9.85963 8.49966C8.93245 8.49966 6.67707 5.15489 5.33943 1.32759C5.07728 0.583693 4.81436 0.283203 4.11537 0.283203H1.38035C0.598923 0.283203 0.442627 0.644526 0.442627 1.04295C0.442627 1.75449 1.36986 5.28361 4.75996 9.95112C7.02001 13.1386 10.2043 14.8665 13.1018 14.8665C14.8403 14.8665 15.0554 14.4828 15.0554 13.8217V11.4126C15.0554 10.6451 15.2201 10.4918 15.7706 10.4918C16.1763 10.4918 16.8717 10.6911 18.4943 12.228C20.3488 14.0495 20.6545 14.8665 21.6975 14.8665H24.4326C25.214 14.8665 25.6047 14.4828 25.3793 13.7254C25.1326 12.9706 24.2473 11.8755 23.0725 10.5773C22.435 9.83727 21.4788 9.04039 21.189 8.64185C20.7834 8.12966 20.8993 7.90195 21.189 7.44664C21.189 7.44664 24.5213 2.83598 24.869 1.27069Z" fill="#AA0E0E"/>
</svg>
